<svg data-name="Camada 1" xmlns="http://www.w3.org/2000/svg" viewBox="0 0 1084.16 290.17">
  <path d="M153.01-.01C68.5-.01.01 65.07.01 145.35c0 48.78 25.32 91.91 64.12 118.28 7.55-11 16.21-23 25-36.71 2.15-3.36 4.44-7.38 6.73-11.78q.86-1.65 1.72-3.36l.89-1.79a217.09 217.09 0 0 0 13.31-33.6l8.64-33.15 29.93-7.3-14.64 18.18h26.45l17.14 15.6 24.16-.2 10.76 10.13-10.83 27.8h-41.23l-6.06-3.23-3 7.59-1.94 4.87-1.65 4.15 12.65 50.22 3.82 19.13c78.45-6.25 140.08-68.67 140.08-144.81C306.03 65.09 237.52-.01 153.01-.01zm42.08 91.91h-28.93v28.92h-25.15V91.91h-28.92V66.76h28.92V37.84h25.15v28.92h28.93z" fill="#ffa623"/>
  <text transform="translate(340.95 188.66)" font-size="146.88" font-family="Righteous-Regular,Righteous" letter-spacing="-.01em" fill="#ffa623">
    H<tspan x="100.19" y="0" letter-spacing="0">elp a Dog</tspan>
  </text>
</svg>
