<svg data-name="Camada 1" xmlns="http://www.w3.org/2000/svg" viewBox="0 0 299.23 299.23">
  <path d="M121.19 30.55a104.33 104.33 0 0 0-14.45 129.44l-23.26 23.24-18.6-18.59a10.23 10.23 0 0 0-14.47 0l-17.73 17.75a10.24 10.24 0 0 0 0 14.47l18.6 18.59-48.32 48.3a10.19 10.19 0 0 0 0 14.4l18.12 18.08a10.17 10.17 0 0 0 14.4 0l48.29-48.29 18.6 18.59a10.24 10.24 0 0 0 14.47 0l17.74-17.73a10.24 10.24 0 0 0 0-14.47l-18.62-18.58 23.26-23.26a104.3 104.3 0 1 0-18.03-161.94zm112.49 112.49a54.8 54.8 0 1 1 0-77.49 54.8 54.8 0 0 1 0 77.49zm0 0" fill="#3f3e3e"/>
</svg>
